<?xml version="1.0" standalone="no"?>
<!DOCTYPE svg PUBLIC "-//W3C//DTD SVG 1.1//EN" "http://www.w3.org/Graphics/SVG/1.1/DTD/svg11.dtd" >
<svg xmlns="http://www.w3.org/2000/svg">
<metadata>Generated by IcoMoon</metadata>
<defs>
<font id="aw-osc_icons-font" horiz-adv-x="1024">
<font-face units-per-em="1024" ascent="960" descent="-64" />
<missing-glyph horiz-adv-x="1024" />
<glyph unicode="&#x20;" horiz-adv-x="512" d="" />
<glyph unicode="&#xe900;" glyph-name="arrow_down" d="M1024 666.784l-513.6-506.784-510.4 503.568 70.112 69.232 440.288-434.432 443.488 437.632z" />
<glyph unicode="&#xe901;" glyph-name="arrow_up" d="M1024 229.216l-513.6 506.784-510.4-503.568 70.112-69.232 440.288 434.432 443.488-437.632z" />
<glyph unicode="&#xe902;" glyph-name="calendar" d="M976 0h-928c-26.51 0-48 21.49-48 48v0 768c0 26.51 21.49 48 48 48v0h112v-64c0-35.346 28.654-64 64-64v0h16c35.346 0 64 28.654 64 64v0 64h416v-64c0-35.346 28.654-64 64-64v0h16c35.346 0 64 28.654 64 64v0 64h112c26.51 0 48-21.49 48-48v0-768c0-26.51-21.49-48-48-48v0zM944 608c0 17.673-14.327 32-32 32v0h-800c-17.673 0-32-14.327-32-32v0-480c0-17.673 14.327-32 32-32v0h800c17.673 0 32 14.327 32 32v0 480zM848 160h-416c-8.837 0-16 7.163-16 16v0 64c0 8.837 7.163 16 16 16v0h416c8.837 0 16-7.163 16-16v0-64c0-8.837-7.163-16-16-16v0zM848 320h-416c-8.837 0-16 7.163-16 16v0 64c0 8.837 7.163 16 16 16v0h416c8.837 0 16-7.163 16-16v0-64c0-8.837-7.163-16-16-16v0zM848 480h-416c-8.837 0-16 7.163-16 16v0 64c0 8.837 7.163 16 16 16v0h416c8.837 0 16-7.163 16-16v0-64c0-8.837-7.163-16-16-16v0zM320 160h-144c-8.837 0-16 7.163-16 16v0 64c0 8.837 7.163 16 16 16v0h144c8.837 0 16-7.163 16-16v0-64c0-8.837-7.163-16-16-16v0zM320 320h-144c-8.837 0-16 7.163-16 16v0 64c0 8.837 7.163 16 16 16v0h144c8.837 0 16-7.163 16-16v0-64c0-8.837-7.163-16-16-16v0zM792 768c-22.091 0-40 17.909-40 40v0 64c0 22.091 17.909 40 40 40s40-17.909 40-40v0-64c0-22.091-17.909-40-40-40v0zM232 768c-22.091 0-40 17.909-40 40v0 64c0 22.091 17.909 40 40 40s40-17.909 40-40v0-64c0-22.091-17.909-40-40-40v0z" />
<glyph unicode="&#xe903;" glyph-name="ch_box" d="M903.529-64h-783.059c-66.534 0-120.471 53.937-120.471 120.471v0 783.059c0 66.534 53.937 120.471 120.471 120.471v0h783.059c66.534 0 120.471-53.937 120.471-120.471v0-783.059c0-66.534-53.937-120.471-120.471-120.471v0zM903.529 839.529h-783.059v-783.059h783.059v783.059z" />
<glyph unicode="&#xe904;" glyph-name="ch_box_fill" d="M120.471 960h783.059c66.534 0 120.471-53.937 120.471-120.471v-783.059c0-66.534-53.937-120.471-120.471-120.471h-783.059c-66.534 0-120.471 53.937-120.471 120.471v783.059c0 66.534 53.937 120.471 120.471 120.471z" />
<glyph unicode="&#xe905;" glyph-name="ch_box_tick" d="M1042.517 794.624l-663.723-663.808-397.397 397.397 121.003 120.661 276.395-276.651 542.805 543.061z" />
<glyph unicode="&#xe906;" glyph-name="ch_box_tick_cut" d="M903.529-64h-783.059c-66.534 0-120.471 53.937-120.471 120.471v0 783.059c0 66.534 53.937 120.471 120.471 120.471v0h783.059c66.534 0 120.471-53.937 120.471-120.471v0-783.059c0-66.534-53.937-120.471-120.471-120.471v0zM831.247 747.731l-383.157-383.337-195.102 195.283-85.414-85.112 280.516-280.516 85.173 85.293 383.337 383.337z" />
<glyph unicode="&#xe907;" glyph-name="check_addr" d="M1024.368 699.584l-597.568-604.032-67.376 68.128 0.688 0.688-359.84 363.632 67.2 67.904 359.728-363.664 529.808 535.392z" />
<glyph unicode="&#xe908;" glyph-name="circle" d="M512 960v0c-282.77 0-512-229.23-512-512v0c0-282.77 229.23-512 512-512s512 229.23 512 512c0 282.77-229.23 512-512 512zM512 908.8c254.493 0 460.8-206.307 460.8-460.8s-206.307-460.8-460.8-460.8c-254.493 0-460.8 206.307-460.8 460.8v0c0 254.493 206.307 460.8 460.8 460.8v0z" />
<glyph unicode="&#xe909;" glyph-name="circle_in" d="M512-64c-282.77 0-512 229.23-512 512s229.23 512 512 512c282.77 0 512-229.23 512-512v0c0-282.77-229.23-512-512-512v0zM512 839.529c-216.236 0-391.529-175.294-391.529-391.529s175.294-391.529 391.529-391.529c216.236 0 391.529 175.294 391.529 391.529v0c0 216.236-175.294 391.529-391.529 391.529v0zM512 658.824c116.435 0 210.824-94.389 210.824-210.824s-94.389-210.824-210.824-210.824c-116.435 0-210.824 94.389-210.824 210.824v0c0 116.435 94.389 210.824 210.824 210.824v0z" />
<glyph unicode="&#xe90a;" glyph-name="circle_out" d="M512-64c-282.77 0-512 229.23-512 512s229.23 512 512 512c282.77 0 512-229.23 512-512v0c0-282.77-229.23-512-512-512v0zM512 839.529c-216.236 0-391.529-175.294-391.529-391.529s175.294-391.529 391.529-391.529c216.236 0 391.529 175.294 391.529 391.529v0c0 216.236-175.294 391.529-391.529 391.529v0z" />
<glyph unicode="&#xe90b;" glyph-name="delete" d="M1019.488 883.056l-435.296-435.312 439.808-439.744-72-72-439.744 439.808-435.312-435.296-72.432 72.432 435.312 435.296-439.824 439.76 72 72 439.76-439.824 435.296 435.312z" />
<glyph unicode="&#xe90c;" glyph-name="help" d="M512-64c-282.77 0-512 229.23-512 512s229.23 512 512 512c282.77 0 512-229.23 512-512v0c0-282.77-229.23-512-512-512v0zM512 878.4c-228.912 0-432-191.824-432-430.4 0-238.587 193.413-432 432-432s432 193.413 432 432v0c0 238.576-203.088 430.4-432 430.4zM589.776 432.784c-15.042-11.090-27.595-24.565-37.341-39.991l-0.355-0.601c-4.524-12.969-7.137-27.919-7.137-43.479 0-4.025 0.175-8.008 0.517-11.944l-0.036 0.511h-86.96q-0.336 18.752-0.336 22.848c-0.067 1.685-0.105 3.662-0.105 5.649 0 23.2 5.194 45.187 14.482 64.862l-0.393-0.927c14.776 24.346 33.424 44.779 55.324 61.087l0.564 0.401c18.474 14.052 34.851 28.698 49.996 44.532l0.148 0.156c7.872 10.025 12.624 22.825 12.624 36.735 0 0.023 0 0.046 0 0.069v-0.004c0 0.074 0 0.161 0 0.249 0 19.153-8.671 36.281-22.302 47.671l-0.098 0.080c-14.963 12.49-34.399 20.074-55.607 20.074-1.619 0-3.227-0.044-4.823-0.131l0.222 0.010c-0.9 0.032-1.957 0.050-3.019 0.050-22.118 0-42.398-7.874-58.188-20.971l0.151 0.122c-17.482-16.354-29.634-38.21-33.688-62.797l-0.088-0.643-88 10.912c2.427 41.736 22.037 78.46 51.795 103.515l0.221 0.181c31.742 26.625 73.033 42.798 118.102 42.798 3.065 0 6.112-0.075 9.141-0.223l-0.427 0.017c2.988 0.167 6.484 0.262 10.003 0.262 46.218 0 88.603-16.41 121.647-43.72l-0.322 0.258c29.512-23.866 48.347-59.922 48.783-100.391l0.001-0.073c-0.050-22.334-6.724-43.099-18.161-60.446l0.257 0.414c-22.18-29.357-47.405-54.724-75.649-76.347l-0.943-0.693zM554.304 192.416h-95.84v95.856h95.856v-95.856z" />
<glyph unicode="&#xe90d;" glyph-name="less" d="M0 416v64c0 8.837 7.163 16 16 16v0h992c8.837 0 16-7.163 16-16v0-64c0-8.837-7.163-16-16-16v0h-992c-8.837 0-16 7.163-16 16v0z" />
<glyph unicode="&#xe90e;" glyph-name="lock" d="M828.592-64h-633.184c-37.317 0.405-67.411 30.75-67.411 68.124 0 0.238 0.001 0.475 0.004 0.712v-0.036 471.36c-0.002 0.201-0.003 0.438-0.003 0.676 0 37.374 30.095 67.719 67.373 68.124h18.422v112.64c-0.010 0.918-0.016 2.003-0.016 3.089 0 164.206 132.223 297.53 296.008 299.31l0.168 0.001h6.128c163.96-1.773 296.192-135.1 296.192-299.312 0-1.086-0.006-2.171-0.017-3.254l0.001 0.165v-112.624h16.336c37.317-0.405 67.412-30.75 67.412-68.124 0-0.243-0.001-0.486-0.004-0.729v0.037-471.36c0.002-0.201 0.003-0.438 0.003-0.676 0-37.374-30.095-67.719-67.373-68.124h-0.038zM683.568 657.6c0.006 0.502 0.009 1.095 0.009 1.689 0 90.595-72.946 164.153-163.307 165.142l-0.094 0.001h-14.304c-90.489-0.945-163.481-74.52-163.481-165.144 0-0.594 0.003-1.187 0.009-1.779l-0.001 0.090v-112.624h341.168v112.624z" />
<glyph unicode="&#xe90f;" d="M828.592-64h0.038c37.278 0.405 67.373 30.75 67.373 68.124 0 0.238-0.001 0.475-0.003 0.676v471.323c0.003 0.243 0.004 0.486 0.004 0.729 0 37.374-30.095 67.719-67.412 68.124h-16.336v112.624l-0.001-0.165c0.012 1.083 0.017 2.168 0.017 3.254 0 164.212-132.232 297.539-296.192 299.312l-6.296-0.001c-163.785-1.78-296.008-135.104-296.008-299.31 0-1.086 0.006-2.171 0.016-3.089v-112.64h-18.422c-37.278-0.405-67.373-30.75-67.373-68.124 0-0.238 0.001-0.475 0.003-0.676v-471.324c-0.002-0.237-0.004-0.474-0.004-0.712 0-37.374 30.095-67.719 67.411-68.124h633.184zM683.568 657.6v-112.624h-341.168v112.624l0.001-0.090c-0.006 0.592-0.009 1.185-0.009 1.779 0 90.623 72.991 164.198 163.481 165.144l14.398-0.001c90.361-0.989 163.307-74.547 163.307-165.142 0-0.594-0.003-1.187-0.009-1.689zM128 176h768v-144h-768v144z" />
<glyph unicode="&#xe910;" d="M128 176h768v-144h-768v144z" />
<glyph unicode="&#xe911;" glyph-name="more" d="M1008 400h-448v-448c0-8.837-7.163-16-16-16v0h-64c-8.837 0-16 7.163-16 16v0 448h-448c-8.837 0-16 7.163-16 16v0 64c0 8.837 7.163 16 16 16v0h448v448c0 8.837 7.163 16 16 16v0h64c8.837 0 16-7.163 16-16v0-448h448c8.837 0 16-7.163 16-16v0-64c0-8.837-7.163-16-16-16v0z" />
<glyph unicode="&#xe912;" glyph-name="order_total" d="M512-64c-282.77 0-512 229.23-512 512s229.23 512 512 512c282.77 0 512-229.23 512-512v0c0-282.77-229.23-512-512-512v0zM512 908.8c-254.493 0-460.8-206.307-460.8-460.8s206.307-460.8 460.8-460.8c254.493 0 460.8 206.307 460.8 460.8v0c0 254.493-206.307 460.8-460.8 460.8v0zM496.992 293.568l-36.192-36.464-219.056 220.752 36.208 36.496 182.848-184.288 310.832 313.296 36.208-36.496-310.848-313.28z" />
<glyph unicode="&#xe913;" glyph-name="plus1" d="M960 345.6h-345.6v-345.6c0-35.346-28.654-64-64-64v0h-76.8c-35.346 0-64 28.654-64 64v0 345.6h-345.6c-35.346 0-64 28.654-64 64v0 76.8c0 35.346 28.654 64 64 64v0h345.6v345.6c0 35.346 28.654 64 64 64v0h76.8c35.346 0 64-28.654 64-64v0-345.6h345.6c35.346 0 64-28.654 64-64v0-76.8c0-35.346-28.654-64-64-64v0z" />
<glyph unicode="&#xe914;" glyph-name="trash" d="M960 736h-64v-688c0-61.856-50.144-112-112-112v0h-560c-61.856 0-112 50.144-112 112v0 688h-64c-8.837 0-16 7.163-16 16v0 48c0 8.837 7.163 16 16 16v0h912c8.837 0 16-7.163 16-16v0-48c0-8.837-7.163-16-16-16v0zM192 80c0-35.346 28.654-64 64-64v0h496c35.346 0 64 28.654 64 64v0 656h-624v-656zM704 112h-48c-8.837 0-16 7.163-16 16v0 496c0 8.837 7.163 16 16 16v0h48c8.837 0 16-7.163 16-16v0-496c0-8.837-7.163-16-16-16v0zM528 112h-48c-8.837 0-16 7.163-16 16v0 496c0 8.837 7.163 16 16 16v0h48c8.837 0 16-7.163 16-16v0-496c0-8.837-7.163-16-16-16v0zM352 112h-48c-8.837 0-16 7.163-16 16v0 496c0 8.837 7.163 16 16 16v0h48c8.837 0 16-7.163 16-16v0-496c0-8.837-7.163-16-16-16v0zM672 880h-336c-8.837 0-16 7.163-16 16v0 48c0 8.837 7.163 16 16 16v0h336c8.837 0 16-7.163 16-16v0-48c0-8.837-7.163-16-16-16v0z" />
<glyph unicode="&#xe915;" glyph-name="demo" d="M0 960h352v-352h-352v352zM352 608h688v-688h-688v688z" />
</font>
</defs>
</svg>
