<svg xmlns="http://www.w3.org/2000/svg" width="64" height="64" viewBox="0 0 64 64">
  <metadata><?xpacket begin="﻿" id="W5M0MpCehiHzreSzNTczkc9d"?>
<x:xmpmeta xmlns:x="adobe:ns:meta/" x:xmptk="Adobe XMP Core 5.6-c138 79.159824, 2016/09/14-01:09:01        ">
   <rdf:RDF xmlns:rdf="http://www.w3.org/1999/02/22-rdf-syntax-ns#">
      <rdf:Description rdf:about=""/>
   </rdf:RDF>
</x:xmpmeta>
                                                                                                    
                                                                                                    
                                                                                                    
                                                                                                    
                                                                                                    
                                                                                                    
                                                                                                    
                                                                                                    
                                                                                                    
                                                                                                    
                                                                                                    
                                                                                                    
                                                                                                    
                                                                                                    
                                                                                                    
                                                                                                    
                                                                                                    
                                                                                                    
                                                                                                    
                                                                                                    
                           
<?xpacket end="w"?></metadata>
<defs>
    <style>
      .cls-1 {
        fill: #f6ba33;
        fill-rule: evenodd;
      }

      .cls-2 {
        fill: #f16e2d;
      }
    </style>
  </defs>
  <path id="Rounded_Rectangle_6" data-name="Rounded Rectangle 6" class="cls-1" d="M51.787,64H12.213A4.258,4.258,0,0,1,8,59.7V30.24a4.258,4.258,0,0,1,4.213-4.3h1.149V18.9A18.708,18.708,0,0,1,31.872,0h0.383A18.708,18.708,0,0,1,50.766,18.9v7.039h1.021A4.258,4.258,0,0,1,56,30.24V59.7A4.258,4.258,0,0,1,51.787,64ZM42.723,18.9A10.322,10.322,0,0,0,32.511,8.473H31.617A10.322,10.322,0,0,0,21.4,18.9v7.039H42.723V18.9Z"/>
  <rect class="cls-2" x="8" y="48" width="48" height="10"/>
</svg>
