<svg xmlns="http://www.w3.org/2000/svg" width="64" height="64" viewBox="0 0 64 64"><path id="Rounded_Rectangle_7" data-name="Rounded Rectangle 7" style="fill-rule:evenodd;" d="M60,14H56V57a7,7,0,0,1-7,7H14a7,7,0,0,1-7-7V14H3a1,1,0,0,1-1-1V10A1,1,0,0,1,3,9H60a1,1,0,0,1,1,1v3A1,1,0,0,1,60,14ZM12,55a4,4,0,0,0,4,4H47a4,4,0,0,0,4-4V14H12V55Zm32-2H41a1,1,0,0,1-1-1V21a1,1,0,0,1,1-1h3a1,1,0,0,1,1,1V52A1,1,0,0,1,44,53ZM33,53H30a1,1,0,0,1-1-1V21a1,1,0,0,1,1-1h3a1,1,0,0,1,1,1V52A1,1,0,0,1,33,53ZM22,53H19a1,1,0,0,1-1-1V21a1,1,0,0,1,1-1h3a1,1,0,0,1,1,1V52A1,1,0,0,1,22,53ZM42,5H21a1,1,0,0,1-1-1V1a1,1,0,0,1,1-1H42a1,1,0,0,1,1,1V4A1,1,0,0,1,42,5Z"/></svg>